<?xml version="1.0" encoding="UTF-8"?>
<svg width="237.13mm" height="153.85mm" version="1.1" viewBox="0 0 237.13 153.85" xmlns="http://www.w3.org/2000/svg">
 <g transform="translate(-21.073 -33.847)">
  <path d="m220.04 47.864c-4.9702-0.56045-10.091 1.9222-14.261 4.5452-4.1638 2.5132-7.0634 5.9424-9.935 9.7992-1.9085 1.9633-3.9441 11.266-5.5951 5.0486-2.4524-4.6918-7.6406-8.0038-12.975-7.7006-2.5701-0.0027-4.9691-0.96834-7.483-1.1015-4.4651 0.61318-8.9215 1.2319-13.423 1.5639-5.4214 1.2347-11.115 2.0156-15.974 4.7682-4.6115 1.8595-9.0594 4.0876-13.087 7.1115-2.5742 2.1846-8.0997 5.2428-8.7272 7.3505 1.5377 0.98219 3.0706 1.9723 4.4992 3.111-1.8226-1.1598-3.7064-2.151-5.9046-2.2789-1.4487-0.95722-2.9298-1.7204-4.6616-0.98359-2.3747-5.1742 4.7064 1.5676 6.2154-1.7094-4.981-1.8884-9.9162-3.9621-14.886-5.8338-4.8865-0.14282-9.0362-3.4943-13.964-3.4258-3.2382-0.23034-6.5083-1.1445-9.685-0.06927-3.0909 0.19437-6.2086 0.258-9.0607 1.6112-3.2842 1.3221-6.3767 3.1022-9.5855 4.6041 0.74802 2.6286 4.6921-0.55076 3.8122 2.3438-1.7379 0.80879-4.3879 0.63262-5.0482 2.5318-3.6243 1.6667 1.2522-4.6417-1.8903-2.38-2.48 1.2402-4.9599 2.4801-7.4399 3.72 3.7343 2.9204 9.6468 1.4227 12.577-2.2242-0.11238-0.86565 5.6969-0.11087 2.651-2.4373 2.1965 0.22605 4.3793 0.35236 6.3988-0.70473 3.2442-0.99886 6.4683-2.4289 9.7248-3.1651 2.9571 0.75885 5.9035 1.6254 8.985 1.1528 1.9143-1.1292 3.8411 1.9312 1.1395 1.4751-1.4888 1.1168 2.3312 0.15115 3.2363 0.38568 4.7421 1.3332 9.5253 2.6447 14.264 3.9056 1.2492 1.379 2.9786 1.0141 4.4992 1.4751 2.019 1.1251 4.3533 1.5675 6.049 3.2643 4.7796 2.7404-4.0331 1.8488-5.8157 0.70613-4.859-0.25934-9.4543-1.5475-14.388-0.68392-5.1221 0.28439-9.9607 0.06924-15.053 0.6229-5.6937-0.70892-11.013 2.2187-16.687 1.7868-5.0623 1.4976-10.028 3.4894-15.094 5.0081-3.5221 2.0329-8.3544 1.6091-11.55 3.9364-1.6886-2.2212-0.31242-4.8369 0.92643-6.5744-1.6036-1.7279-6.1833 3.0164-5.5568 3.2005 2.1877 0.85319 0.26872 6.249 4.743 4.5341 4.3225-1.7695 8.5419-3.4224 13.613-2.2996-3.3954-0.60762-6.7022 3.2478-10.566 3.1697-4.4277 1.2139-8.3715 3.3534-12.835 4.066-4.5551-3.1529 8.0857-7.0116 3.4636-8.7664-0.88106 2.8632-8.3868 3.809-6.1418 8.7889 2.7783 2.2743 7.1139 0.27191 9.7808-0.24832-0.28412-0.94751 1.9235 0.74356 2.314-1.7263 2.9236 1.2721 6.864-2.4332 6.5133 2.4216-6.0441 0.72139-1.0051 7.2817 3.3753 5.0516 4.2627-1.515 8.4762-3.3826 12.971-4.464 5.2392-1.8108 10.294-3.9536 15.76-5.0419 3.8707-1.3665-4.3744-3.6278 0.57711-2.8037 2.9743 3.0844 7.557-0.49663 11.298-0.87536 3.5462-0.62427 9.2317-3.3371 11.941-1.0641-2.8187 2.5868-5.9251 5.116-8.4926 8.0762-3.8003 3.2492-4.3228 8.7866-8.6632 11.563-3.7832 2.6232-4.8706 7.1552-6.4733 11.17-3.019 4.2487-5.9688 8.81-10.25 11.927-10.874 6.691-24.332 5.6475-36.518 4.541-4.3235 0.78658-13.053-3.2153-12.392 4.0328 3.0621 4.238 6.7523-3.201 10.41 0.73526 12.738 3.363 24.319 9.8691 36.706 14.224 4.2388 2.5472 8.9558 4.1961 13.936 4.3634 5.2326 0.11088 10.072 1.9691 15.241 2.1818 2.4101 3.9064 1.5918 9.6329 4.4735 13.612 3.1963 4.0417 8.0967 6.1877 12.857 7.8517 5.0276 0.61179 10.09 0.0416 15.161 0.74358 7.543 0.55492 15.039-1.0363 22.156-3.3855 5.5426-2.7735 10.29-6.9667 14.078-11.832 3.9485-1.8685 6.7443 5.9327 11.764 4.4572 4.1623 2.5718 9.5836 1.436 14.287 1.2139 15.309-2.524 27.372-15.126 32.536-29.287 1.2097-5.6319 2.8136-11.488 1.8726-17.258 2.132-2.8492 3.8974-7.5326 5.9374-10.01 1.3415 0.53825 4.5979-0.36071 3.5926 1.9382 0.42312 1.7662 0.38844-2.384 2.7578-1.2916 1.7985-0.36069 4.0595 0.28855 5.1848-1.5402 1.4854-0.8823 3.0917-1.4656 3.2008-3.4937 1.2638-1.7967-2.1395-3.9739 0.82264-1.8186 3.3729 1.7396-0.32324-4.6489 0.96417-6.5219 1.3207-3.9761-1.554-6.7468-5.2713-4.7551-4.1616-1.7168-8.2054 0.22337-7.8276 4.962 0.19142 3.3958-3.2547 8.5905 0.96279 10.645 0.0692 0.29411-3.0086-1.0807-4.1562-1.4312-2.5584-0.95446-5.1349-1.8634-7.6252-2.9885 0.64924 4.2086-2.2145-3.6135-4.6542-2.3759-4.4736-1.6672-8.7608-3.9656-13.236-5.7499-4.819-2.4527-10.576-5.2291-12.146-10.876-3.3263-3.6855-2.4741-8.6322-3.6061-13.079 1.1944-3.4016-0.94751-5.6926-1.286-5.4742 2.0489-0.38289 1.9043-2.5053 2.4219-4.1026 1.3124-3.4261 3.6255-6.441 5.3313-9.7055 0.91423-1.6934 1.8124-3.4001 3.5564-4.3687 0.64231-1.8003 2.2592-2.3559 3.7396-3.2203 2.5423-2.8679 6.4026-3.6316 9.7278-5.2542 2.0379-0.76578 4.1843-2.0506 6.253-2.2632 1.3595 1.2069 3.0709 1.1431 4.6948 1.5968 2.2907 0.5757 4.2581 1.7287 6.0083 3.2949 2.1084 1.5432 4.3154 2.9926 5.4982 5.4135 1.7817 2.3905 3.1796 5.0078 4.4784 7.6837-4.3423 2.2725-9.8594 2.1558-14.738 2.3159-4.8087 0.17746-10.233-0.30522-14.307 2.8368-3.6799 4.7319 3.5003 3.7634 6.2483 3.0373 2.0063 1.3919 1.7821-4.0535-0.36762-2.9071 0.13871-1.8322 6.5682-0.52856 9.1444-0.89896 4.8913-0.14148 9.7622-0.93362 14.643-1.2347 2.9423-2.5354 7.177 1.4898 3.2919 3.427-3.0297 0.77689-6.5209-0.28715-5.997 3.9157-0.1914 4.7961-2.3364 0.09718-0.72275-2.3814-4.4299-0.93365-9.8162 0.43422-14.598-0.02765 0.2719 4.1123-3.1078 0.70059-3.8987 0.22605-1.3165 1.6073-1.8003 2.9523-1.3512 0.65203-2.1328-1.0086-0.52439 2.2083-2.7275 2.5932-1.7831 1.7778-4.1118 3.1563-5.5598 5.179-0.88091 1.916-2.6472 3.4188-2.4681 5.7063-0.0971 1.6369-1.1237 3.5492 0.63538 4.6435 1.3734 1.4078 2.295 3.5613 4.552 3.5095 6.131 1.2347 12.198 3.5867 18.549 2.8054 2.1056-0.41479 4.1337 0.23302 6.1941 0.3912 2.2982-0.1498 4.5966-0.2927 6.8955-0.43005 1.4572 1.3637 3.3918 4.7544 3.0868 0.61041 1.4744-3.9716 3.0891-7.7935 3.9468-11.958 0.0276-3.2651 0.84485-6.3667 3.2217-7.6267-1.0377-3.3857 2.6196-0.93781 2.1754-4.4365-1.1612-4.2053-3.8332-7.7877-7.3844-10.434-0.52996-5.6104 4.6736-9.9866 5.5633-15.529 2.0223-3.477 0.26498-9.6076-2.8509-11.471-2.8262 1.4052-10.814-2.4943-10.277 2.4323 0.67282 0.24404 5.1643 0.06927 2.1543-0.67144-2.8549-2.7026 3.9832 1.3235 5.1735 1.77 6.0018 3.5575-1.2333 9.9807-3.1409 13.991-4.3197-1.1015-7.8011-6.9092-13.069-7.6025-2.5578-2.5204-6.7382 2.0196-7.6248-2.5042-4.8741-0.06926-3.2808-9.0871-9.2547-8.8277-3.6394 1.0474-6.3328-6.697-10.055-2.0815-3.308 4.5749 3.2458 7.5292 6.015 3.7387 3.7355 0.54797 7.6348 4.6126 6.837 8.598m7.4586-0.93226c0.88647 1.4986 1.0072-0.41341 0 0zm-3.1078 0.72556c0.36209 0.09718-0.39815 0.18578 0 0zm-4.04 1.4503c-1.175 4.2423-3.2843 8.1909-4.5349 12.139 3.2408 4.6514 6.8654 0.04162 6.5829-3.9434 0.53965-2.5742 2.7578-8.2079-1.3401-8.1958h-0.70751m15.849 2.7969c3.1791 1.6699 4.6076 5.213 7.5654 7.4293 1.1376 1.8938 4.6008 7.4926 1.286 7.9389-4.4454 0.70749-1.4852-7.2723-5.1149-9.052-1.1223-1.9974-4.0585-3.904-3.7369-6.316m15.849 2.1754c-0.77966 2.1989-0.86151 4.7279-2.4862 6.5262-2.8211 0.68255-0.3288-1.9902 0.0276-3.3114 0.83931-0.98219 0.80739-3.5662 2.4633-3.2148zm-32.32 4.6616c0.58404 3.7039-3.3876 1.2819 0 0zm-47.859 2.4861c-2.0343 2.0428-6.0684-1.175-1.5633-0.56878l0.55353 0.15115zm-8.3909-0.31075c-2.3774 1.5456-5.2251 2.2645-7.6406 3.634-1.175 1.7089-3.1475 3.0824-3.808 5.0078-2e-3 2.0578-0.73804 4.2015-0.46197 6.1776 2.525 4.6674-1.8444 0.05558-4.5363 0.24565-3.2945-1.4035-6.7158 2.086-1.5742 2.8502 3.264-1.967 6.2719 2.3288 1.8609 3.217-0.27191 3.1076-1.6242 6.2153-0.93225 9.3231-2.9005 0.41478-5.8011 0.8282-8.7016 1.243 0.67144 1.1071 3.9965-0.36623 3.4993 2.0643 1.1764 3.8646 1.2264-4.6054 3.688-0.85179 3.1752 1.3817-0.14983 1.6375-0.86151 3.2912-2.4444-0.7644-2.3692 0.57987-3.9846 0.849-0.8837-1.4733-1.7678-2.9464-2.6518-4.4196-1.7662 0.39397-3.8598 0.24833-5.2832 1.5019-3.4724-0.69641-6.8284 0.74497-10.255 1.1403-1.1201 1.4283-2.7358 2.0752-4.4027 2.6415 0.53521 1.6574 1.0706 3.3149 1.6057 4.9723-2.8006-0.58681-4.1913-3.8495-6.5598-4.9971 0.94932-3.5831 1.3308-11.207 6.528-10.029 3.7134 1.2361 11.328-1.7921 12.307 3.2164 2.5942 2.8348 0.9947-3.0021 3.4015-2.8429 2.8869-0.12484 0.6423-2.0066-0.15124-3.3925-1.1015-1.5164 3.7207-2.5923 2.8102-5.5739 1.7202-0.14283 3.9257 0.1541 3.1078-2.2858 0.48554-2.2608-2.6554-0.29271-3.904-0.53272 2.4512 4.1717-3.2575-0.53272-5.0841 2.0929-0.0971 2.8095 5.8287-0.05558 2.8635 3.565-0.48 2.8939-7.5184-0.46752-4.0283 2.9059 2.5411 2.318-1.6377 1.4933-3.1586 1.2985 0.55908-1.845-3.3845-3.0566-0.6-3.5107 3.0582-0.44947 3.4288-2.3297-0.0694-2.9782-3.5995-0.33295-4.222-3.0367-1.447-2.3087-4.3981-2.761 2.6398-2.6658 3.9807-5.6016 4.2695-2.2239 7.898-5.3566 12.711-6.3392 6.1891-2.5082 12.731-4.1737 19.279-5.4222 0.81434-0.09718 1.6337-0.15115 2.4537-0.15115m14.296 0.31075c0.28995 1.7609-1.7557-0.27606 0 0zm10.566 13.985c-3.9209-1.2819-7.7219-3.0702-11.718-4.0349-4.9798-0.4703-9.9864-1.4356-14.963-1.4619-1.6829 0.8199-3.5698-0.0027-5.3632 0.57296-5.3624 1.0724 1.2791-6.9238 4.4303-5.8653 6.8421-1.2777 13.858-0.98082 20.734-0.49943 5.0331 1.2305 7.6571 6.3554 6.8795 11.288m-95.717-4.3508c-1.8857 1.6148-9.2641 0.11087-8.9922-1.5881 3.0334-0.6215 5.9301 1.7617 8.9922 1.5881zm157.87-1.5539c-0.12483 1.8472 3.6409 3.0861 0.44115 3.2329-1.0182 0.53551-1.5483-3.8343-0.44115-3.2329m-173.72 2.1753c-4.219 0.98775-0.61207-3.0243 0 0zm19.268 0c-0.56379 2.6006 5.6927 0.26095 7.6274 2.2162 1.5768 0.09718 9.0251 2.8581 5.6084 2.732-5.0104-1.1501-9.8585-2.8891-14.79-4.3265-0.3772-1.1279 0.989-0.43146 1.5539-0.6215m64.64-0.31075c1.139 1.2763 5.9617 0.15678 2.9577 2.054-3.4604-0.08322-7.6804 2.4158-10.039 2.6332-0.31769-4.455 5.3743-1.791 7.0811-4.6873m-86.705 0.31075c-1.0477 3.293-9.7245 3.4374-3.4798 0.78938 1.1082-0.44117 2.2843-0.7436 3.4798-0.78938zm93.542 0c2.328 2.9162-3.1976 0.11087 1.3e-4 -1.34e-4m4.3508 0.93226c0.14843 0.72-1.9862 0.24968 0 0zm5.9047 0.6215c-1.3054 2.257 1.3637 2.1685 2.8704 2.7654 5.26 1.5397-3.687 1.9939-4.2277 4.4196-3.9539 2.5111-7.2636 6.3346-8.709 10.94-1.466 5.8106-7.7266 0.8185-11.762 1.046-2.9211-1.2292-3.7815 0.96554-4.8788 2.6561-6.0812-0.35516-2.4358-8.1751-0.74358-11.261 0.8296-3.8471 4.9941-4.968 7.4621-5.6851 3.3889-3.3178 9.1311-3.1212 13.631-3.1407 3.0964 1.5541 3.7737-2.5543 6.3581-1.7402m13.674 0.93226c-0.37041 2.2304-2.9691-0.60762 0 1.61e-4m58.114 3.4185c3.5635-2.2412 0.87676 1.9419-1.2278-0.68392-5.6258-1.867 2.011-4.4212 1.2278 0.68392m-4.9724-2.7969c-1.4005 1.3776 0.58821 2.8626-0.93226 4.3508-2.4022-1.1334-2.0354-4.5776 0.93226-4.3508zm-6.5262 2.7969c-2.3706 0.74913-4.2086-1.4091-0.58821-0.75606zm-81.422-0.6215c0.59931 1.5934-1.5901-0.64787 0 0zm32.32 4.6615c1.9437 3.306-0.58961 8.4119 1.4425 10.556 0.82267 4.6894 4.3833 8.2838 7.6274 11.665 2.501 3.241 7.1739 3.6014 9.5419 6.7254 1.743 7.5492 8.0507 12.853 14.563 16.414 5.9423 1.785-0.48693 8.2868-3.1723 10.507-4.3465 5.9269-13.616 6.6832-19.087 1.8934-4.8334-3.4368-7.7243-8.7471-10.811-13.632-2.6712-9.1218-5.109-19.357-1.0308-28.447 3.5989-1.0404-1.2111-7.454-0.90866-3.5621-2.3412-0.62706-0.76994 2.4695-1.5446 3.6441-1.3817 1.3304-0.45919 3.4295-1.1126 5.1119 0.47999 2.8499-2.6818 3.1566-0.74497 5.4301 1.803 3.3657-6.2117 1.7671-0.97804 2.6992 2.2509 3.9471 1.4028 9.6498 3.5002 14.138 2.342 4.5797 4.1849 9.3155 8.1416 12.9 3.4704 3.5102 7.8482 6.6637 12.922 7.0158 2.7202-0.30379 6.25 0.57158 2.5963 3.179-3.9769 3.4784-8.5849 5.9274-13.639 7.0138-5.4182-0.74217-8.8241-2.9174-13.13-5.1131-4.175-1.9365-1.5468-5.4875-1.973-7.459-2.4838-1.4164 1.5453-1.0835 0.65064-3.8091 0.4578-4.8261 2e-3 -9.7601-0.94196-14.51-2.0845-5.2264-6.4489-9.4518-11.792-11.253-5.1384-2.2205 0.83931-6.5638 1.2819-9.9459 4.4297-2.0232-1.3831-2.4264-1.1376-5.1997 1.2014-0.60765-1.6033-1.9945-0.11101-3.0001-1.3484-0.65203 1.494-2.7216 1.8701-3.9569 0.47861-3.0494 1.7677-5.7014 4.8717-7.1936 3.3635-2.9452 7.6692-4.8687 12.085-4.2853 1.3568-0.1388 2.845 1.8268 1.0196 2.4724m40.089-1.5538c-1.1168-0.30519-6.1548 0.17907-3.509-0.91974 1.1986-0.42729 2.7929-0.26498 3.509 0.91974zm0.31075 0.6215c-0.42867-4.2639 3.4726 0.48139-1.5e-4 -1.34e-4m22.065-0.93226c1.4102 2.16 0.59374 2.4235-1.5539 1.5538-0.0416-0.70196 1.1653-1.0308 1.5539-1.5539m-121.2 0.6215c-4.8628-0.23437 0.56185 3.2542 0 0zm112.5 0.31075c1.709 2.426 0.36209 6.5426 0.0692 9.0305-1.1611 1.3401-2.3238 2.6814-3.4857 4.022-0.86844-2.5447 0.87816-2.364 0.90868-3.6569 2.6356-2.5609 1.6368-5.1607-1.9011-5.1746-0.0556-2.0066-4.7014-2.3798-4.4351-0.59378 0.48556 1.713-3.3234-1.4924-3.3848-0.94057 0.29828 2.882-6.6927-2.5006-7.6581 1.7172-3.2759 0.96554-4.7634 6.4184-6.1903 6.5557-1.6432-5.1022 6.0049-7.8512 9.3511-10.087 5.0003 0.93089 10.328 0.06924 15.175 0.68254 0.80046 5.4907 1.2874-0.24001 1.5539-1.5538m3.4184 0c1.2292 2.9085-2.4566 0.86149-0.0556 0h0.0556m-188.33 0.93226c-0.68171-0.45503-1.2411-0.82683-0.22793-0.15249zm161.6 0.72553c0.36209 0.09721-0.39953 0.18739 0 0zm-177.45 5.1796c1.519 0.6326 3.1093 2.5849 4.4945 0.73802 2.5834-1.9495 5.7378-2.912 8.5579-4.4677-0.24817-1.2305-3.2691-1.0072-4.3508-0.36349-1.8623-0.37177-3.5204-0.08328-4.8079 1.3951-1.2574 0.95306-2.602 1.79-3.8936 2.697m6.8369-3.1077c1.123 1.4618-2.3259 1.8678 1.12e-4 1.59e-4m53.763 3.1076c-0.67103-2.0761-3.9173-0.63538-3.5239-2.064 0.58557-1.0793 3.8154 0.48138 3.524 2.0641m7.1477-1.243c-0.0624 3.3049-9.4668-1.4877-4.849-0.70336 1.6199 0.20941 3.2336 0.46198 4.849 0.70336m115.61-0.93225c1.0779 1.5073-1.6344 1.2638 1.4e-4 0m22.997 0.62151c-0.75189 1.8177-4.1226-0.9489-1.3914-0.34821 0.46335 0.11088 0.92809 0.2317 1.3913 0.34821m-158.49 0c0.41036 2.146-0.16814 3.4069-2.5236 3.0775-4.514 2.1812-10.028 4.1565-15.201 5.1145-4.1386 2.3409-9.1988 2.3499-13.048 4.8481-4.0327 0.1388 1.0735-2.1581 0.27857-4.1903 0.69836-1.3582 2.9407-1.7286 4.4081-2.2951 2.5204-0.71724 5.0784-1.9709 7.7502-1.3748 3.0082-1.7301 6.7719-0.68811 9.9311-2.0988 2.0021-0.6007 4.16-0.1388 6.2289-0.283-1.7243-2.1452-0.22903-3.2282 2.1754-2.7971m-6.2154 0.31076c-1.6569 2.5304-7.822 0.14846-2.4811 0.29134 0.8271-0.09721 1.6541-0.19438 2.4811-0.29134zm32.009 0.93225c-1.761-0.20806-3.5221-0.41479-5.2831-0.62151 1.5368-0.68115 4.1709-0.87816 5.2831 0.62151zm-24.24-0.31076c4.1793 0.06924 1.8215 6.4831-0.08602 2.3896-0.05549-0.79907 0.07769-1.5919 0.08602-2.3896m139.54 1.5539c-1.8723-1.4453 0.23862-2.0167 0 0zm-160.67 0c-0.92573 0.96974-3.2314 0.84488-4.6687 1.4095-2.2876-0.0276 4.1002-2.4953 4.6687-1.4093m31.388 0.6215c-2.7571 1.5513-3.9118-1.1015-0.30063-0.0276l0.28079 0.0276 0.018 0.0024m133.94-0.31074c2.625 3.0734 0.29966 4.3373-2.4862 3.1076-0.60761-2.2344 2.1432-1.1403 2.147-3.1076h0.33862m-4.6617 2.1754c-4.2228 0.29135-1.6668-4.1144 0 0zm-2.4862 1.5538c-2.4633 1.0682-3.5587-2.0003-6.2154-0.6215 1.2125-3.9765 5.1528-2.3736 6.2154 0.6215m21.132 1.5539c-2.2448 0.35932-3.7538 2.3269-5.594-0.28299 3.0083 0.08329 2.9499-1.2375 0.95582-2.5396-3.2983-3.893 5.2885 1.2611 4.6383 2.8216m-137.67-2.7976c-1.6329 4.3119 0.25652 12.194-6.2046 12.461-1.7055 0.91836-2.9377 4.5152-4.7394 6.3625 0.18868 5.3459 5.7688 8.4424 10.245 10.102 3.5672 1.9977 2.8866 9.0583-1.4769 9.6097-1.5896 1.68-1.2383 4.8834-4.3508 5.9046-1.7895-3.9471-4.0619-7.79-5.1609-12.08-1.4126-4.3951-1.3167-9.4986-0.43283-13.685-0.74206-2.0368-0.5742-4.0957-0.06521-6.1652 0.64148-1.3304-0.27898-4.5036 1.815-4.119-0.76273-3.0907 4.2322-6.3119 6.5175-7.9092 1.2842-0.16082 2.5684-0.32048 3.8525-0.48139m128.35 0c0.38704 0.38706 0.30798 0.30798 0 0zm-150.1 1.5539c-1.2941-0.97111-1.6773-1.2583 0 0zm0.51801-0.72557-0.10406 0.20672zm-7.1477 0.31076-0.10406 0.20672zm23.101 0.72556c0.38733 0.38706 0.30756 0.308 0 0zm136.74 0c1.5045 4.6631-5.4986 0.39122-1.3e-4 0m-106.59 0.31076c0.38705 0.38706 0.30797 0.30798 0 0zm-61.843 1.5539c3.0422 1.361 2.8018 1.6937-0.33517 1.5539-1.7121 0.70891-0.42034-1.907 0.33517-1.5539zm77.382 0c0.69365 0.96278 4.3131 2.8076 1.4005 2.6858-1.3913 0.63679-0.92948-1.9118-1.4005-2.6856m0.31076 2.1754c-0.43283 3.0334-5.3914-2.9562-1.0127-0.40509 0.33711 0.13879 0.67421 0.26914 1.0127 0.40509zm15.228-0.93227c0.20672 4.5002-8.953 1.2916-6.1 1.0405 2.8352 2.0106 0.83791-1.2777 3.1455-0.52992 1.0169 0.29963 1.9688-0.32187 2.9544-0.51053m-36.982 1.5538c0.34126 3.0401-3.3295-1.8363-1.5e-4 1.34e-4m-61.843 1.243c-1.2382-0.23035-4.2591 1.6178-4.04-0.31076 1.2948 0.0276 3.1084-1.0932 4.04 0.31076m103.49-0.31076c-1.6554 3.584 3.7598 0.08328 0 0zm63.397 0c-0.38704 0.38706-0.30798 0.30796 0 0zm-182.11 0.31076c-0.0541 1.372 1.9234 4.2999-0.63163 3.7546-1.5412 0.88229-4.1328-0.84627-2.3666-2.0055 0.9994-0.58267 1.9988-1.1653 2.9981-1.7489m109.39 1.5538c-1.347 2.4278-7.3003-2.0851-3.4302-0.86568 1.0099 0.61181 2.3095 0.54384 3.4302 0.86568m-9.0124 1.243c-1.585 0.77687-1.8827 3.0928-2.5926-0.18873 0.38567-1.1764 2.2686-0.88093 2.5926 0.18873zm-13.985 0.0972c2.9211 1.9772 9.3178-2.3302 9.8897 2.3301 0.86289 3.5503 0.80324 7.0503-3.8453 7.0921-6.1321 2.8886-7.9554-4.5506-7.3256-8.9828l0.38151-0.25665 0.89895-0.1831m-83.286 0.20672c0.29077 1.7609-1.7558-0.27606 0 0zm79.557 7.4586c-1.8092-1.9677-1.9588-4.7206-2.7969-7.1478 2.5852 1.1098 2.207 4.8592 2.7969 7.1478zm27.969-2.4863c-2.0003 0.11088-2.1192 3.071-3.9538 2.9323-2.2772-0.0134-4.5109-0.55212-6.7679-0.80878 0.15539-1.9509 0.31076-3.9017 0.46613-5.8527 3.0943-0.70196 8.8047 0.72693 10.256 3.7292m-67.437-4.0399c0.64273 4.9899-1.374 10.145-0.04025 15.213 1.3454 7.1406 4.6129 13.755 6.953 20.559-0.75468 4.4814-2.888 8.7146-3.7449 13.233-0.21502 2.3892-1.3052 9.9069-3.5306 4.448-5.3817-7.1986-7.381-16.282-8.2243-25.017 0.67727-5.0669-0.24597-10.423 1.6466-15.383 0.67436-4.6854 2.9715-9.4388 6.2312-12.777l0.70918-0.27608m30.766 12.431c-1.7253-3.231-3.4331-6.4717-5.2831-9.6338 2.7726-0.98776 5.3286-2.9266 8.3908-2.6416 1.7628 2.4312 2.5806 5.4143 3.5288 8.2066 0.84486 2.3051-1.6115 2.2925-3.1669 2.9122-1.157 0.38566-2.3132 0.77134-3.4697 1.157m-13.363-11.809c2.5425 3.1425-1.9077 2.5368 0 0zm132.7 1.243c2.2169 3.2865-4.292 3.563-2.3505 1.175 0.78382-0.39122 1.5671-0.78382 2.3506-1.175m-136.74 3.4184c1.1702 4.4544-4.529-0.87537-0.20047 0zm9.0124-0.31076c0.99525 1.1501 3.376 4.265-0.0597 1.9411-0.5291-0.7311-1.7391-2.3459 0.0597-1.9409m-8.7016 4.6615c-2.6233-1.8904 0.66382-0.94058 2.1218-0.86843 3.077 1.8477 2.4252-4.687 5.194-1.0488 1.9326 3.4688 8.47 8.2426 1.7113 10.582-3.9958 0.32048-7.2035-3.702-11.055-4.6502-1.5915-1.8283 1.1724-2.804 2.0277-4.0133zm132.39-3.1076c-1.2278 1.8626-1.2999-0.0556 1.4e-4 0m4.3508 0.6215c-1.1418 1.2485-3.6142-0.88647-0.49944-0.0692l0.27886 0.0416 0.22068 0.0276m-2.1754 1.243c-0.55214 1.9656-1.5288 3.9232-0.53966 5.9188 0.61733 2.0414-1.8816-1.6674-2.6501-2.1832-2.7943-2.5507 1.2749 0.40926 1.2638-0.87816-0.55489-2.0017-0.12484-2.6044 1.9268-2.8577m-116.85 73.342c8.4136-2.7843 14.008-10.107 20.061-16.155 4.8952-6.3384 8.2191-13.832 10.602-21.448 1.0294-5.7685 1.8891-11.327 0.98913-17.179-1.0932-5.6082-4.3479-10.818-8.7639-14.398-2.8702-0.0276-7.8922-4.264-2.219-2.7785 6.1157 0.83375 12.39 0.68808 18.435 1.5071 6.1107 2.0947 12.366 7.4426 11.552 14.512 1.3977 4.8358 0.32879 9.8748-0.6215 14.688-0.95306 9.5634-6.5054 17.735-11.999 25.293-3.9427 5.5121-8.4143 11.501-15.317 13.281-4.8818 2.5544-10.241 3.2066-15.636 3.512-2.147-0.23034-5.6811 1.089-7.0828-0.83515m-3.1077-69.302c-3.9302 0.56324-1.9996-2.8671 0 0zm-14.917 21.443c-0.85623-5.9852 6.0766-9.7317 9.5855-13.758 3.7758-3.5404 8.3276-6.3101 13.521-7.0557 8.8765-4.5238 21.185 1.0405 23.371 10.83 1.8849 5.0253 1.9704 10.26 0.82682 15.466-1.593 12.97-9.3313 24.102-18.091 33.364-4.0571 2.7461-7.5823 6.422-12.53 7.6549-4.6581 2.2563-9.9683 1.4475-14.818 0.21774-5.3002-1.1181-9.1118-6.363-10.774-11.291-1.492-11.037-0.69239-23.003 5.4385-32.631 0.67089-1.3908 1.7161-2.9336 3.4704-2.7969m-22.997-21.132c-1.0503 3.6836-0.52301 7.1802-0.92879 10.731 1.557 2.2642-0.25512 1.8959 0.06105 4.0133 0.19228 4.3769 0.20406 8.8442 1.0822 13.126 1.9795 4.585 3.4852 9.4273 6.5186 13.463 0.40203 2.1219 1.8473 3.7686 2.9004 5.5938-3.5495 1.0612-8.3598-0.79354-9.3329-4.8432-0.49859-2.7488-2.8368-5.4261-2.6684-8.5792-1.9347-2.114-1.5592-5.2462-2.3571-7.8612-0.08322-2.1073-1.0131-4.3774-0.09295-6.3748-1.3907-2.6951-0.20046-5.6199-0.03609-8.4556 0.46238-2.73 0.16371-5.8099 2.2511-7.9322 0.87774-0.78798 1.3124-2.9596 2.6015-2.88m134.56 0.62151c2.0081 0.30659-0.72554 2.0303 2.8e-4 1.3e-4m6.5261 1.8647c1.5049 3.3824-3.0662 0.31768 0 0zm12.431 1.8646c-2.4989-0.0833-2.3322-1.6471 0 0zm-0.11088 0.51745-0.0972 0.20673zm-12.017 0.41482c2.0958 2.4813-2.8816 1.3276-0.33988-1.4e-4h0.33841m-117.47 26.416c1.7678-2.0754 5.3788-1.97 2.0408 0.66172-4.9649 0.26766-2.8088 7.3188-4.3699 10.884-1.1745 5.6515-0.5656 12.99 5.2075 15.915 4.2557 2.2825 9.5253 2.445 13.914 0.51052 4.093-1.0044 7.1234-4.9957 10.518-7.5476 2.8685-3.367 5.1696-7.2142 7.493-10.973 2.2088-4.5696 4.4601-9.1792 4.0427-14.423 0.91422-6.1726-1.0155-12.998-5.344-17.56-3.1676-3.5337-8.5638-2.929-12.419-1.0904-4.2724 0.69087-7.5477 3.509-10.557 6.341-4.3693 3.6748-7.1422 8.6035-9.5149 13.753-0.52135 1.1084-0.97388 2.288-1.0116 3.5281m5.2831-24.24c-1.3379 2.3486-1.4736-1.2416 0 1.6e-4m28.591 6.2153c-0.61181-0.97526-4.0462-3.2858-2.7331-3.351 1.5027 0.26069 3.338 1.6141 2.7331 3.351zm-4.04-0.93225c-4.7191 2.1816-10.976 3.32-14.38 8.3555-8.2431 8.5944-12.008 21.715-8.1198 33.161-0.37443 3.65-5.6228-2.2914-5.1554-4.7844-1.6015-7.7374 1.6392-15.307 4.1824-22.447 3.0076-4.675 6.8864-8.8385 10.669-12.915 3.356-3.037 9.1333-5.0854 12.804-1.3692m-14.606-0.93225c-0.38734 0.38705-0.30757 0.30799 0 0zm-47.548 1.5539c2.0029 4.4733-0.56449 10.517 1.9011 15.4 0.78409 5.4716 3.2424 10.111 5.1255 15.131-0.29078 4.0398-5.6635-0.96417-5.7456-3.5936-2.3054-5.0689-3.0285-11.04-3.2658-15.917 0.31089-3.6962-0.82904-7.9758 1.9848-11.021m24.862 0.6215c-0.40911 1.0058 1.4779 0.89481 0 0zm42.886 16.16c-1.6355-0.87398-3.7261 0.5688-3.3766 2.3707-0.0832 2.104 0.76994 4.4518-0.85873 6.1543-0.98497 1.261-1.5908 3.1529-2.5203 4.1705-1.6539-0.27469-3.6046 0.44254-4.2945 1.8799 0.87677 3.052 0.17756 5.1285-2.3123 7.1784-3.0282 2.9367-7.8657 5.2966-11.928 3.1641-2.9447-4.7459-2.6014-10.411-1.7415-15.822 2.2226-8.3997 5.9833-17.614 14.361-21.516 4.598-3.3069 13.421-2.728 12.963 4.5724 0.18867 2.6217-0.27747 5.2286-0.29134 7.8477m-24.24-13.363c-1.646 3.0758-2.9906 6.3393-5.2831 9.0124-2.0415-2.6991 3.1067-7.388 5.2832-9.0124m20.511 2.02c-3.9765 2.0837 0.54104 7.4758 2.159 2.6071 0.31213-1.2042-0.67005-3.2816-2.159-2.6071zm-9.2712 0.31075c-3.794 2.4609 1.7064 7.1527 2.0192 1.9967 0.11101-1.0571-0.6756-2.8897-2.0192-1.9967zm91.315 7.9246c-1.4089 2.049-2.5527 4.2084-2.893 6.7029-0.22473 2.5609-2.1603 4.6138-2.7879 6.9339 1.2028 2.5892-3.6878 1.833-3.7796 5.088-4.0416 4.9778-9.4077 8.9944-15.222 11.683-5.1643 1.7044-10.514 3.4804-16.016 3.0524-0.97664-0.63954 2.714-1.642 3.717-2.4355 3.3729-2.9032 6.9975-5.5569 9.5967-9.2265 2.7743-2.7381 3.7544-6.7354 5.9208-9.8304 2.7747-1.8394 5.6949-3.6559 8.1042-5.9109 2.0361-3.0599 3.908-6.256 6.7985-8.6073 1.7728-1.7398 3.5456-3.4794 5.3184-5.2192 2.8936 1.6566-1.1736 6.2517 1.243 7.7692zm-150.1-7.1477c0.31561 2.3689-1.0165 2.8715-3.1322 2.4861-3.5298 0.46197 1.7922-3.9483 3.1321-2.4861m-2.1754 4.3508c0.33073 3.4199-5.3436 0.96276-1.0216 1e-3l1.0216-1e-3m64.64 0.41481c-3.623 1.8304-7.6904 3.5283-9.3359 7.6339-2.0302 3.4449-2.4187 9.9486 2.1701 11.347 4.8466-1.2749 8.3496-6.5447 10.345-11.048 0.77134-2.5559 0.65758-8.4343-3.1794-7.933zm-111.57 1.1404c-0.50192 2.6537-5.3577 2.7169-2.3281 0.14014 0.72097-0.41342 1.5697-0.35792 2.3281-0.14014zm6.5262 0.93225c-2.9406 0.93918-3.5123-2.6311-0.43186-0.80322zm36.36-0.93225c-3.2685 3.5191-2.5203 8.9463-1.2039 12.354-2.497-0.51744-4.8067-1.4502-6.8243-3.031 0.54132-2.4465 1.1223-4.8902 0.72514-7.4066 2.2604-1.2278 4.8379-1.3415 7.3031-1.9165m-32.32 0.31075c1.5442 1.4278 8.9804 0.17209 6.5798 3.1146-2.2782-0.59654-5.7652-0.25397-6.5798-3.1146m88.259 1.243c-1.6056 3.1995 2.4685 6.7966 3.3363 2.3127 0.17756-1.8712-1.7371-2.7117-3.3362-2.3126m-75.207 3.7293c-3.7432 1.1473-6.2859-4.3597-1.3064-3.1938 1.9535 0.12485 1.6423 1.8219 1.3065 3.194m7.4585-3.1076c0.10406 1.9681 0.20739 3.9364 0.31089 5.9045-4.5572 1.2638-5.923-4.2172-2.9404-6.2826 0.89882-0.0276 1.7417 0.31631 2.6296 0.37736m81.422-0.31075c2.365 5.045-2.3818 9.9876-5.8628 13.149-2.9237 2.0207-3.8399-1.3082-0.52994-1.9452 4.6154-1.887 4.9745-7.8244 5.3306-10.85 0.35375-0.11088 0.70751-0.23598 1.0613-0.35376zm-68.68 0.67283c3.9914 0.1388 2.0671 11.217-1.1395 7.0958-0.32088-2.1375-0.5015-5.6132 1.1395-7.0958m-18.025 0.57017c1.6918 1.3068-1.8413 1.9614 0 1.4e-4m8.0801 0.62151c0.45822 2.0686-0.54548 4.8051-1.1566 0.96554-0.42923-1.3443 0.58238-0.88232 1.1566-0.96554zm75.725 2.6934-0.0971 0.20672zm-0.2067 0.72555c-0.83375 1.5944-3.1641-0.51468 0 1.4e-4m58.425 9.0125c-3.7559 1.1501-7.3332 2.8127-11.038 4.0599-3.5761 0.62842-6.8213 2.2091-10.094 3.7093 1.4936-5.3273 4.8963-10.192 6.8888-15.383 4.5148 2.1474 9.0923 5.6862 14.046 7.0416zm-119.96-6.5262c2.5828 2.5712 3.2814 8.0791-1.8069 5.2853-3.7394-1.0793 0.40245-4.2242 1.8069-5.2853zm58.425 0.93226c0.36348 1.0904 0.45226 1.3554 0 0zm-9.3231 3.5739c-4.2345 1.7245 0.44017 6.9313 1.9239 2.3204 0.086-1.0183-0.69725-2.5806-1.9238-2.3204m46.926 11.965c5.1915-2.0199 10.36-0.11088 15.714-0.52716 4.8494-0.76854 7.3743-5.1439 9.3706-8.856 2.4692-3.1104 7.1612-1.0932 3.3448 2.0778-3.1324 6.6337-9.6207 10.727-15.998 13.78-4.7329 0.58405-12.281-0.2137-12.431-6.4743zm-91.056-9.9446c1.4191 1.8251-0.22903 3.3256-1.4428 1.916 0.48583-0.59377 0.38622-2.2339 1.4427-1.916m104.11 5.5938c-1.7817 2.9076-6.6447-0.65756-1.8117 0h1.8117zm-55.628 1.0876c-4.361 1.8154 1.3387 7.3687 1.8878 2.328 0.16369-1.0502-0.41757-3.0641-1.8878-2.328zm-15.539 0.15544c0.20922 4.9852 3.9347 8.9361 9.0123 8.9605 6.2113 0.77273-2.1474 2.2772-4.3044 0.38844-3.2204-1.3346-6.9725-6.779-4.7654-9.3488z" fill="#0a080c"/>
 </g>
</svg>
